<?xml version="1.0" encoding="UTF-8"?>
<svg id="Layer_2" data-name="Layer 2" xmlns="http://www.w3.org/2000/svg" viewBox="0 0 377.57 229.61">
  <defs>
    <style>
      .cls-1 {
        fill: #f8f6ef;
      }

      .cls-2 {
        fill: #f26b21;
      }
    </style>
  </defs>
  <g id="Layer_1-2" data-name="Layer 1">
    <path class="cls-2" d="M333.73,52.78l-24.31-2.61-28.84-18.66-36.14,11.44L203.8,0l-80.9,43.68-7.43,3.99-13.19,7.14-63.39,34.21-23.2,12.52c10.58.07,22.54.63,30.6-2.14l94.65-35.72-66.61,37.93,147.94-4.21,65.19-11.13-61.57-7.31,54.28-17.7c.88-3.87,1.69-7.15,2.04-10.81l-3.4-9.99,29.87,19.94c7.24,4.84,12.65,11.71,20.97,15.42-2.68-1.19-13.03-13.59-9.34-13.44l15.11.57,26.28,19.58M154.93,82.03l45.32-39.07-18.72-1.29,21.59-29.29,31.16,34.29-79.36,35.37Z"/>
    <g>
      <path class="cls-1" d="M32.94,229.61v-19.3H0v-19.48l26.03-76.33h27.63v76.33h7.97v19.48h-7.97v19.3h-20.72ZM32.94,155.23c0-1.06.18-6.38.35-8.85-.35,1.95-1.77,7.44-2.12,8.5l-10.45,35.95h12.22v-35.6Z"/>
      <path class="cls-1" d="M64.11,114.5h21.07l6.2,92.62h1.42l8.85-92.62h23.91l9.56,92.62h1.24l5.84-92.62h21.07l-11.51,115.11h-30.11l-7.26-81.29h-1.24l-7.26,81.29h-30.11l-11.69-115.11Z"/>
      <path class="cls-1" d="M168.77,114.5h38.43c13.99,0,17.71,8.85,17.71,23.2v70.13c0,10.98-4.25,21.78-18.59,21.78h-37.54v-115.11ZM203.48,209.78v-75.26h-13.46v75.26h13.46Z"/>
      <path class="cls-1" d="M253.96,229.61h-21.07v-19.66h21.07v19.66Z"/>
      <path class="cls-1" d="M300.53,207.3h-15.05l-1.95,22.31h-21.61l12.4-115.11h37.9l11.87,115.11h-21.61l-1.95-22.31ZM287.25,188h11.69l-4.43-53.13h-2.66l-4.6,53.13Z"/>
      <path class="cls-1" d="M327.81,229.61v-18.6l26.92-76.5h-26.92v-20.01h49.76v18.77l-27.1,76.5h27.1v19.83h-49.76Z"/>
    </g>
  </g>
</svg>